<?xml version="1.0" encoding="UTF-8" standalone="no"?>
<!-- Created with Inkscape (http://www.inkscape.org/) -->

<svg
   width="8.6874952mm"
   height="4.6583118mm"
   viewBox="0 0 8.6874952 4.6583118"
   version="1.1"
   id="svg1"
   xml:space="preserve"
   inkscape:export-filename="image.svg"
   inkscape:export-xdpi="96"
   inkscape:export-ydpi="96"
   inkscape:version="1.4.4 (dcaf3e7, 2026-05-05)"
   sodipodi:docname="Logo_AVF_BB_compact.svg"
   xmlns:inkscape="http://www.inkscape.org/namespaces/inkscape"
   xmlns:sodipodi="http://sodipodi.sourceforge.net/DTD/sodipodi-0.dtd"
   xmlns="http://www.w3.org/2000/svg"
   xmlns:svg="http://www.w3.org/2000/svg"><sodipodi:namedview
     id="namedview1"
     pagecolor="#ffffff"
     bordercolor="#000000"
     borderopacity="0.25"
     inkscape:showpageshadow="2"
     inkscape:pageopacity="0.0"
     inkscape:pagecheckerboard="0"
     inkscape:deskcolor="#d1d1d1"
     inkscape:document-units="mm"
     inkscape:zoom="22.627417"
     inkscape:cx="56.214989"
     inkscape:cy="14.341009"
     inkscape:window-width="3840"
     inkscape:window-height="2054"
     inkscape:window-x="3829"
     inkscape:window-y="-11"
     inkscape:window-maximized="1"
     inkscape:current-layer="layer1" /><defs
     id="defs1" /><g
     inkscape:label="Calque 1"
     inkscape:groupmode="layer"
     id="layer1"
     transform="translate(-4.0078409,-3.2838134)"><g
       id="g1"
       style="display:inline"><path
         style="display:inline;fill:#ffaa37;fill-opacity:1"
         d="m 10.777099,5.4299866 c -0.0063,-0.1812421 0.02284,-0.3349617 0.02293,-0.3612787 6.4e-4,-0.1730266 0.03913,-0.6456835 0.07338,-0.7830534 0.03842,-0.1540704 0.130664,-0.3402048 0.227295,-0.4586327 0.04177,-0.051191 0.150826,-0.1636971 0.182856,-0.1886392 0.06864,-0.053455 0.105762,-0.078919 0.154901,-0.1062704 0.09633,-0.053617 0.242727,-0.1185233 0.309162,-0.1370678 0.0346,-0.00966 0.07235,-0.02151 0.08388,-0.026336 0.02385,-0.00998 0.215166,-0.046232 0.325039,-0.061593 0.04037,-0.00564 0.160782,-0.013195 0.267588,-0.016782 l 0.194192,-0.00652 0.0296,0.024749 c 0.01945,0.016263 0.0328,0.040373 0.03893,0.070315 0.01234,0.060299 0.0108,0.5548522 -0.0019,0.603023 -0.01821,0.069191 -0.03757,0.075784 -0.242166,0.082512 -0.339041,0.011148 -0.536549,0.067932 -0.671201,0.1929713 -0.108186,0.100462 -0.136199,0.1952041 -0.171087,0.5786297 -0.0084,0.092491 -0.01533,0.1837699 -0.01535,0.2028421 l -5.2e-5,0.034677 0.129134,-0.00671 c 0.07102,-0.00369 0.227907,-0.018563 0.348629,-0.03305 0.346381,-0.041566 0.361614,-0.041999 0.398328,-0.011317 l 0.03087,0.025799 0.0031,0.3188 c 0.0032,0.335875 3.37e-4,0.3615097 -0.04386,0.389658 -0.04301,0.02739 -0.354863,0.074957 -0.685293,0.1045268 l -0.201839,0.018062 v 0.9906354 0.9906354 l -0.03345,0.031785 -0.03345,0.031785 h -0.333533 c -0.199298,0 -0.333532,-0.00383 -0.333532,-0.00951 0,-0.00523 -0.0087,-0.012195 -0.01938,-0.015484 -0.01066,-0.00329 -0.02481,-0.017572 -0.03146,-0.031742 -0.0088,-0.018869 0.0084,-0.3001681 0.0084,-1.0191762 v -0.98172 c -0.35792,-0.073077 -0.0012,-0.164816 -0.01065,-0.4365233 z"
         id="path3"
         inkscape:label="Jaune"
         sodipodi:nodetypes="sccscssccscsccsscccsssccsscccccssccscs" /><path
         style="display:inline;fill:#ff6766;fill-opacity:1"
         d="m 7.0526874,5.3983972 c 0.063966,0.1360461 0.064394,0.1789045 0.1020885,0.3354857 0.00939,0.039014 0.020177,0.1133952 0.011044,0.3962211 -0.00913,0.2828259 -0.02462,0.6515259 -0.021227,1.0547059 0.00429,0.5101264 -0.00905,0.657121 -0.019083,0.6753216 -0.026295,0.047758 -0.013858,0.052316 -0.3473499,0.052316 -0.336607,0 -0.3556472,-0.00279 -0.3804808,-0.05577 -0.00689,-0.014698 -0.012526,-0.049967 -0.012526,-0.078375 V 7.72665 L 6.3602377,7.742518 C 6.2143025,7.8354671 6.0067795,7.8994245 5.7403234,7.9335738 5.6216405,7.9487843 5.2799966,7.9402858 5.163643,7.9192287 4.951184,7.8807789 4.8013178,7.830703 4.654813,7.7492097 4.4738592,7.648554 4.3586061,7.5521585 4.2424662,7.4043307 4.0139262,7.1134354 3.9460915,6.7145697 4.0666278,6.370408 4.1191146,6.220545 4.203929,6.0953779 4.3395576,5.9676248 4.582525,5.7387657 4.9137059,5.6076537 5.2883921,5.5919884 5.6521356,5.5767807 6.0174209,5.6598269 6.2907911,5.81988 6.3225081,5.83845 6.3514961,5.853655 6.3552081,5.85367 6.3803851,5.8537677 6.2958271,5.6367763 6.2360702,5.547941 6.1864125,5.4741183 6.0727216,5.3542959 6.0523346,5.3542959 c -0.00725,0 -0.013186,-0.00401 -0.013186,-0.00891 0,-0.016548 -0.1724106,-0.093146 -0.2550468,-0.1133121 C 5.4603999,5.1530817 5.0070876,5.1910067 4.5567401,5.3347593 4.4380696,5.3726393 4.4102367,5.3726299 4.3712115,5.3346962 L 4.3405628,5.3049046 V 4.9886532 c 0,-0.2091698 0.00392,-0.324621 0.011586,-0.3409699 0.013598,-0.02901 0.069912,-0.055448 0.2086005,-0.097936 0.2918975,-0.089423 0.5008353,-0.1235175 0.7987254,-0.1303362 0.2390567,-0.00547 0.3548555,0.00284 0.5344183,0.038342 0.2838127,0.05612 0.5395164,0.1785704 0.7427913,0.355704 l 0.057553,0.050152 0.1108493,0.1317725 c 0.1121033,0.1332633 0.1641151,0.2254546 0.2476008,0.4030156 z m -1.370032,1.7901047 c 0.092528,-0.011634 0.2525949,-0.048735 0.2668457,-0.06185 0.00548,-0.00504 0.016226,-0.00917 0.023882,-0.00917 0.042661,0 0.2263982,-0.1085981 0.2911949,-0.1721115 C 6.32484,6.8863014 6.339279,6.8368604 6.317289,6.7648827 6.2810086,6.6461301 6.0713941,6.4894098 5.8346667,6.4040471 5.3711475,6.2369045 4.9399544,6.307434 4.8065121,6.5722206 c -0.028453,0.05646 -0.030818,0.069803 -0.030818,0.1739314 0,0.1079887 0.00149,0.1155663 0.03503,0.1783571 0.036555,0.068432 0.1009982,0.1420157 0.1243746,0.1420157 0.00748,0 0.0136,0.00396 0.0136,0.00879 0,0.026761 0.2301686,0.1042951 0.3460082,0.1165551 0.076961,0.00815 0.312645,0.0061 0.3879487,-0.00337 z"
         id="path4"
         inkscape:label="Rouge"
         sodipodi:nodetypes="sssccssscssssssssscssscsscsccccscssccsssssscssccc" /><path
         style="display:inline;fill:#5997ea;fill-opacity:1"
         d="M 8.5487794,7.8614472 C 8.4322437,7.762567 8.4383628,7.7421444 8.3501294,7.615865 8.312571,7.5621115 8.1365397,7.2034682 8.0866709,7.0910164 8.019228,6.9389362 7.9584038,6.7708948 7.9306986,6.6994207 7.9144024,6.6573794 7.8539227,6.4954946 7.8248824,6.4254257 7.795842,6.3553568 7.6981065,6.1275114 7.6737579,6.0624295 7.466421,5.5082323 7.420508,5.441547 7.3850719,5.3894971 7.3704809,5.3680661 7.286463,5.3384802 7.2267849,5.444579 7.2081529,5.477704 7.1587952,5.629777 7.1607772,5.7448036 7.1615597,5.7902182 7.1223439,5.6153383 7.0781739,5.4813754 7.0406368,5.3675293 6.9699983,5.2234655 6.9046676,5.1452612 6.7638554,4.9419323 6.6634718,4.8577626 6.6634718,4.8577626 L 6.778706,4.6782078 C 6.844722,4.5753435 6.9156556,4.5392305 6.9843238,4.495842 7.1676395,4.3800127 7.2912938,4.3865571 7.4757292,4.41062 c 0.104886,0.013684 0.3298911,0.1658953 0.3983262,0.2398453 0.1443928,0.1560287 0.2645671,0.3948214 0.4304569,0.8316163 0.024819,0.065349 0.2775342,0.7381026 0.3588503,0.929381 0.044086,0.103702 0.025273,0.066619 0.065735,0.1790724 0.034368,0.072653 0.064922,0.09369 0.088351,0.041132 0.02965,-0.066516 0.00885,-0.030881 0.1062017,-0.2517578 0.025942,-0.058858 0.098937,-0.1951873 0.1066303,-0.2120039 0.037401,-0.081763 0.08806,-0.2145397 0.1166639,-0.2915303 0.00751,-0.019619 0.078443,-0.155276 0.1032551,-0.2241194 L 9.3315266,5.426601 9.1883003,5.2852646 C 9.0878803,5.1861696 9.0273553,5.0868547 8.9914427,4.9949838 8.8843568,4.7210392 8.9694708,4.3849069 9.1738137,4.2055991 9.3201459,4.0771948 9.5305135,4.0252689 9.7305027,4.0524975 c 0.2493451,0.033948 0.4750363,0.1608864 0.5717433,0.4291474 0.03927,0.1089198 0.03017,0.2907473 -0.01849,0.4949676 0.104887,-0.00137 0.0076,0.015019 0.07846,0.028416 0.122051,0.023084 0.425797,-0.00536 0.426117,0.053704 0.0059,1.0829484 -0.0084,0.4980262 0.0046,0.795375 l -0.214959,0.00548 c -0.202582,-0.013053 -0.353444,-0.03742 -0.473823,-0.066415 -0.01632,-0.00393 -0.08498,-0.00404 -0.08498,0.00621 0,0.027137 -0.3247644,0.9010326 -0.4268428,1.1346931 -0.3449569,0.7895963 -0.4001306,0.8972502 -0.5585541,0.9754523 -0.081817,0.040387 -0.2988785,0.044228 -0.3885166,0.00601 z"
         id="path5"
         inkscape:label="Bleu"
         sodipodi:nodetypes="csssssssssccsssssscssccscssssccssccsssscc" /></g></g></svg>
